<?xml version="1.0" encoding="utf-8"?>
<!DOCTYPE svg PUBLIC "-//W3C//DTD SVG 1.1//EN" "http://www.w3.org/Graphics/SVG/1.1/DTD/svg11.dtd">
<svg version="1.1" xmlns="http://www.w3.org/2000/svg" xmlns:xlink="http://www.w3.org/1999/xlink" x="0px" y="0px" width="700px" height="990px" viewBox="0 0 700 990" enable-background="new 0 0 700 990" xml:space="preserve">
  <rect opacity="{{ alpha }}" fill="{{ bg }}" width="700" height="990"/>
  <path opacity="{{ alpha }}" fill="{{ fg }}" d="M486.957,219H212.969C169.173,219,134,254.442,134,298.234v273.99 c0,43.798,172.2,198.906,215.998,198.906C393.799,771.131,566,616.022,566,572.225v-273.99C566,254.442,530.758,219,486.957,219z M212.969,307.111c-10.577,0-19.156-8.578-19.156-19.154c0-10.579,8.58-19.164,19.156-19.164c10.579,0,19.16,8.585,19.16,19.164 C232.129,298.533,223.548,307.111,212.969,307.111z M394.763,604.369c-12.127,1.592-24.262,2.399-36.393,2.399 c-20.435,0-38.473-3.046-54.108-9.107c-15.65-6.058-28.823-14.766-39.516-26.097c-10.696-11.331-18.76-24.9-24.181-40.708 c-5.434-15.808-8.137-33.599-8.137-53.39c0-19.167,2.703-36.712,8.137-52.687c5.421-15.96,13.404-29.612,23.946-40.947 c10.533-11.324,23.455-20.184,38.791-26.576c15.32-6.381,32.881-9.575,52.672-9.575c6.711,0,13.096,0.164,19.158,0.474 c6.065,0.319,12.046,0.965,17.965,1.919c5.9,0.954,11.97,2.391,18.207,4.31c6.213,1.91,13.163,4.313,20.813,7.187 c0.642,10.851-0.312,21.626-2.869,32.322c-2.562,10.699-6.547,21.153-11.971,31.369c-5.431-1.917-10.289-3.422-14.604-4.55 c-4.309-1.112-8.389-1.995-12.22-2.633c-3.823-0.633-7.584-1.033-11.25-1.191c-3.669-0.163-7.588-0.248-11.734-0.248 c-15.321,0-28.008,4.548-38.076,13.648c-10.056,9.098-15.083,24.829-15.083,47.177c0,11.812,1.518,21.627,4.552,29.443 c3.035,7.826,7.021,13.973,11.976,18.442c4.936,4.473,10.688,7.661,17.244,9.577c6.537,1.915,13.476,2.877,20.815,2.877 c9.265,0,17.33-0.801,24.199-2.4c6.851-1.589,14.92-4.143,24.181-7.661c5.424,8.622,9.743,18.28,12.932,28.977 c3.185,10.7,4.785,22.908,4.785,36.636C420.303,599.1,406.898,602.769,394.763,604.369z M486.957,307.103 c-10.572,0-19.144-8.57-19.144-19.146c0-10.579,8.571-19.149,19.144-19.149c10.563,0,19.146,8.57,19.146,19.149 C506.104,298.533,497.521,307.103,486.957,307.103z"/>
</svg>